<?xml version="1.0" standalone="no"?><!DOCTYPE svg PUBLIC "-//W3C//DTD SVG 1.1//EN" "http://www.w3.org/Graphics/SVG/1.1/DTD/svg11.dtd"><svg t="1619512082485" class="icon" viewBox="0 0 1024 1024" version="1.1" xmlns="http://www.w3.org/2000/svg" p-id="7807" xmlns:xlink="http://www.w3.org/1999/xlink" width="48" height="48"><defs><style type="text/css"></style></defs><path d="M698.75394446 214.56615084h32.65945259v588.7004672h-32.65945259z" fill="#92DEEB" p-id="7808"></path><path d="M714.25334499 197.54448784v557.56327594h-510.64991061V254.28336642c0-31.4139648 25.46330169-56.73887858 56.73887972-56.73887858h453.91103089z" fill="#FFFFFF" p-id="7809"></path><path d="M554.83093447 249.02464058h108.08064455v176.58246258h-108.08064455zM554.83093447 478.88629534h108.08064455v14.66907534h-108.08064455zM554.83093447 512.92962249h108.08064455v14.66907534h-108.08064455zM554.83093447 546.97294964h108.08064455v14.66907648h-108.08064455zM554.83093447 581.01627678h108.08064455v14.66907648h-108.08064455zM554.83093447 615.05960393h108.08064455v14.66907648h-108.08064455zM554.83093447 444.84296706h108.08064455v14.66907648h-108.08064455z" fill="#E6E5E5" p-id="7810"></path><path d="M260.3423141 698.36888521c-14.53068857 0-29.06137714 5.53550051-40.13237817 16.60650155s-16.60650155 25.6016896-16.60650155 40.13237702 5.53550051 29.06137714 16.60650155 40.13237818 25.6016896 16.60650155 40.13237817 16.60650154h453.91103089v-113.47775829h-453.91103089z" fill="#D9D8D7" p-id="7811"></path><path d="M620.14983851 180.5228237v461.10718293c0 35.98075221-29.33815182 65.31890403-65.31890404 65.31890403H260.3423141c-12.87003819 0-25.04813909 4.98195001-34.04332829 14.11552598-9.13357597 9.13357597-14.11552597 21.17328896-14.11552597 34.04332714H195.02340893v-509.26603491c0-35.98075221 29.19976505-65.31890403 65.31890517-65.31890517h359.80752441z" fill="#ADECF7" p-id="7812"></path><path d="M308.22439139 444.84296706h264.04336868v14.66907648H308.22439139zM308.22439139 478.88629534h264.04336868v14.66907534H308.22439139zM308.22439139 410.79963991h264.04336868v14.66907648H308.22439139zM364.96327111 376.75631276h150.42722247v14.66907534H364.96327111z" fill="#FFFFFF" p-id="7813"></path><path d="M195.02340893 245.84172887v509.26603491h17.02166414c0-12.87003819 4.98195001-25.04813909 14.11552597-34.04332714 9.13357597-9.13357597 21.17328896-14.11552597 34.04332715-14.11552598V180.5228237c-35.98075221 0-65.18051726 29.19976505-65.18051726 65.31890517z" fill="#92DEEB" p-id="7814"></path><path d="M620.14983851 180.5228237v461.10718293c0-35.98075221-29.19976505-65.18051726-65.31890404-65.18051726V115.34230644c36.11914013 0 65.31890403 29.19976505 65.31890404 65.18051726z" fill="#76D0DE" p-id="7815"></path><path d="M260.3423141 803.26661804c-12.87003819 0-25.04813909-4.98195001-34.18171506-14.11552597-9.13357597-9.13357597-14.11552597-21.17328896-14.11552597-34.18171506 0-12.87003819 4.98195001-24.90975232 14.11552597-34.04332715 9.13357597-9.13357597 21.17328896-14.11552597 34.04332715-14.1155271h294.48862037c35.98075221 0 65.31890403-29.33815182 65.31890517-65.31890404 0-35.98075221-29.33815182-65.18051726-65.31890517-65.18051726v17.02166414c26.57040157 0 48.15885312 21.58845155 48.15885312 48.29724103 0 26.57040157-21.58845155 48.29724103-48.15885312 48.29724103H260.3423141c-17.43682674 0-33.76655246 6.7809883-46.08304128 19.09747598-12.31648882 12.31648882-19.09747598 28.78460245-19.09747599 46.08304014 0 17.43682674 6.7809883 33.90494037 19.09747599 46.2214292 12.31648882 12.31648882 28.64621454 19.09747598 46.08304128 19.09747598h470.93269504v-17.02166414H260.3423141z" fill="#76D0DE" p-id="7816"></path><path d="M321.64798009 755.10776378h-61.30566599V851.01030857l30.58363961-30.58363961 30.72202638 30.58363961z" fill="#F77B55" p-id="7817"></path><path d="M833.40499171 264.0569845h-11.90132622l-9.27196274 30.30686492h30.4452517z" fill="#FFFFFF" p-id="7818"></path><path d="M833.40499171 409.69254004h-3.73646336l3.45968754 30.30686492h9.54873856z" fill="#CCCBCA" p-id="7819"></path><path d="M812.23170275 294.36384942h30.4452517v418.62221597h-30.4452517z" fill="#F77B55" p-id="7820"></path><path d="M833.12821589 318.63644201h9.54873856v418.62221597h-9.54873856z" fill="#EE643C" p-id="7821"></path><path d="M833.40499171 264.0569845l-5.9506631-19.65102649-5.95066312 19.65102649z" fill="#656A73" p-id="7822"></path><path d="M833.40499171 264.0569845l-5.9506631-19.65102649 2.21419974 19.65102649z" fill="#232E38" p-id="7823"></path><path d="M812.23170275 712.98606539h30.4452517v17.71360142h-30.4452517z" fill="#F2F2F2" p-id="7824"></path><path d="M833.12821589 737.25865798h9.54873856v17.71360142h-9.54873856z" fill="#CCCBCA" p-id="7825"></path><path d="M842.67695445 747.72133095c0 3.87485013-1.52226247 7.74970027-4.42840064 10.79422522-3.04452494 3.04452494-6.91937507 4.42840064-10.7942252 4.42840064s-7.74970027-1.52226247-10.79422635-4.42840064c-2.90613817-3.04452494-4.42840064-6.91937507-4.42839951-10.79422522v-17.02166414h30.4452517v17.02166414z" fill="#474F59" p-id="7826"></path><path d="M816.79849017 758.51555617c-1.66065038-1.79903715-2.90613817-3.73646222-3.59807545-5.95066198 1.52226247 0.55355051 3.18291285 0.83032519 4.84356323 0.83032406 3.87485013 0 7.74970027-1.52226247 10.79422522-4.42839951 3.04452494-3.04452494 4.42840064-6.91937507 4.42840064-10.79422635v-7.47292558h9.54873856v17.02166414c0 3.87485013-1.52226247 7.74970027-4.42840064 10.79422522-3.04452494 3.04452494-6.91937507 4.42840064-10.79422522 4.42840064-4.01323805 0-7.88808818-1.52226247-10.79422634-4.42840064z" fill="#232E38" p-id="7827"></path></svg>