<?xml version="1.0" standalone="no"?><!DOCTYPE svg PUBLIC "-//W3C//DTD SVG 1.1//EN" "http://www.w3.org/Graphics/SVG/1.1/DTD/svg11.dtd"><svg t="1619512208311" class="icon" viewBox="0 0 1024 1024" version="1.1" xmlns="http://www.w3.org/2000/svg" p-id="15887" data-spm-anchor-id="a313x.7781069.0.i20" xmlns:xlink="http://www.w3.org/1999/xlink" width="48" height="48"><defs><style type="text/css"></style></defs><path d="M680 960H120c-30.93 0-56-25.07-56-56V120c0-30.93 25.07-56 56-56h560c30.93 0 56 25.07 56 56v784c0 30.93-25.07 56-56 56z" fill="#9ad2ef" p-id="15888" data-spm-anchor-id="a313x.7781069.0.i2" class=""></path><path d="M603 208.67H197c-11.6 0-21 9.4-21 21s9.4 21 21 21h406c11.6 0 21-9.4 21-21 0-11.59-9.4-21-21-21zM407 396.89H197c-11.6 0-21 9.4-21 21s9.4 21 21 21h210c11.6 0 21-9.4 21-21s-9.4-21-21-21zM603 627.11H197c-11.6 0-21-9.4-21-21s9.4-21 21-21h406c11.6 0 21 9.4 21 21s-9.4 21-21 21z" fill="#E1F5FF" p-id="15889"></path><path d="M595.42 487.98l-59.4-59.4L892.4 72.2c10.93-10.93 28.66-10.93 39.6 0L951.8 92c10.93 10.93 10.93 28.66 0 39.6L595.42 487.98z" fill="#a5e2e1" p-id="15890" data-spm-anchor-id="a313x.7781069.0.i11" class=""></path><path d="M932 151.4L872.6 92l19.8-19.8c10.93-10.93 28.66-10.93 39.6 0L951.8 92c10.93 10.93 10.93 28.66 0 39.6L932 151.4z" fill="#93dad6" p-id="15891" data-spm-anchor-id="a313x.7781069.0.i17" class=""></path><path d="M494.25 520.48l41.77-91.9 59.4 59.4-91.9 41.77c-5.89 2.68-11.95-3.38-9.27-9.27z" fill="#FFFFFF" p-id="15892"></path></svg>